REM DIRINDEX 1\2,1\3,1\4
REM DIRNAME cjc151,folder01,folder02,folder03
TITLE ""
FILE "152 152_TOEFL_3900.mp3" MP3
  TRACK 01 AUDIO
    TITLE "2:cjc151_6619"
    INDEX 01 00:00:00
  TRACK 02 AUDIO
    TITLE "0:"
    INDEX 01 00:01:24
  TRACK 03 AUDIO
    TITLE "3:cjc151_6620"
    INDEX 01 00:03:02
  TRACK 04 AUDIO
    TITLE "0:"
    INDEX 01 00:07:11
  TRACK 05 AUDIO
    TITLE "2:cjc151_6621"
    INDEX 01 00:08:66
  TRACK 06 AUDIO
    TITLE "0:"
    INDEX 01 00:09:73
  TRACK 07 AUDIO
    TITLE "3:cjc151_6622"
    INDEX 01 00:11:52
  TRACK 08 AUDIO
    TITLE "0:"
    INDEX 01 00:15:01
  TRACK 09 AUDIO
    TITLE "2:cjc151_6623"
    INDEX 01 00:16:55
  TRACK 10 AUDIO
    TITLE "0:"
    INDEX 01 00:17:74
  TRACK 11 AUDIO
    TITLE "3:cjc151_6624"
    INDEX 01 00:19:48
  TRACK 12 AUDIO
    TITLE "0:"
    INDEX 01 00:23:32
  TRACK 13 AUDIO
    TITLE "2:cjc151_6625"
    INDEX 01 00:25:11
  TRACK 14 AUDIO
    TITLE "0:"
    INDEX 01 00:26:18
  TRACK 15 AUDIO
    TITLE "3:cjc151_6626"
    INDEX 01 00:27:71
  TRACK 16 AUDIO
    TITLE "0:"
    INDEX 01 00:31:47
  TRACK 17 AUDIO
    TITLE "2:cjc151_6627"
    INDEX 01 00:33:24
  TRACK 18 AUDIO
    TITLE "0:"
    INDEX 01 00:34:32
  TRACK 19 AUDIO
    TITLE "3:cjc151_6628"
    INDEX 01 00:36:11
  TRACK 20 AUDIO
    TITLE "0:"
    INDEX 01 00:40:58
  TRACK 21 AUDIO
    TITLE "2:cjc151_6629"
    INDEX 01 00:42:37
  TRACK 22 AUDIO
    TITLE "0:"
    INDEX 01 00:44:09
  TRACK 23 AUDIO
    TITLE "3:cjc151_6630"
    INDEX 01 00:45:61
  TRACK 24 AUDIO
    TITLE "0:"
    INDEX 01 00:49:74
  TRACK 25 AUDIO
    TITLE "2:cjc151_6631"
    INDEX 01 00:51:52
  TRACK 26 AUDIO
    TITLE "0:"
    INDEX 01 00:52:53
  TRACK 27 AUDIO
    TITLE "3:cjc151_6632"
    INDEX 01 00:54:30
  TRACK 28 AUDIO
    TITLE "0:"
    INDEX 01 00:57:37
  TRACK 29 AUDIO
    TITLE "2:cjc151_6633"
    INDEX 01 00:59:16
  TRACK 30 AUDIO
    TITLE "0:"
    INDEX 01 01:00:47
  TRACK 31 AUDIO
    TITLE "3:cjc151_6634"
    INDEX 01 01:02:24
  TRACK 32 AUDIO
    TITLE "0:"
    INDEX 01 01:06:26
  TRACK 33 AUDIO
    TITLE "2:cjc151_6635"
    INDEX 01 01:08:03
  TRACK 34 AUDIO
    TITLE "0:"
    INDEX 01 01:09:09
  TRACK 35 AUDIO
    TITLE "3:cjc151_6636"
    INDEX 01 01:10:55
  TRACK 36 AUDIO
    TITLE "0:"
    INDEX 01 01:13:34
  TRACK 37 AUDIO
    TITLE "2:cjc151_6637"
    INDEX 01 01:15:09
  TRACK 38 AUDIO
    TITLE "0:"
    INDEX 01 01:16:32
  TRACK 39 AUDIO
    TITLE "3:cjc151_6638"
    INDEX 01 01:18:11
  TRACK 40 AUDIO
    TITLE "0:"
    INDEX 01 01:22:19
  TRACK 41 AUDIO
    TITLE "2:cjc151_6639"
    INDEX 01 01:23:71
  TRACK 42 AUDIO
    TITLE "0:"
    INDEX 01 01:25:00
  TRACK 43 AUDIO
    TITLE "3:cjc151_6640"
    INDEX 01 01:26:54
  TRACK 44 AUDIO
    TITLE "0:"
    INDEX 01 01:31:55
  TRACK 45 AUDIO
    TITLE "2:cjc151_6641"
    INDEX 01 01:33:34
  TRACK 46 AUDIO
    TITLE "0:"
    INDEX 01 01:34:61
  TRACK 47 AUDIO
    TITLE "3:cjc151_6642"
    INDEX 01 01:36:39
  TRACK 48 AUDIO
    TITLE "0:"
    INDEX 01 01:40:64
  TRACK 49 AUDIO
    TITLE "2:cjc151_6643"
    INDEX 01 01:42:41
  TRACK 50 AUDIO
    TITLE "0:"
    INDEX 01 01:44:11
  TRACK 51 AUDIO
    TITLE "3:cjc151_6644"
    INDEX 01 01:45:65
  TRACK 52 AUDIO
    TITLE "0:"
    INDEX 01 01:50:07
  TRACK 53 AUDIO
    TITLE "2:cjc151_6645"
    INDEX 01 01:51:62
  TRACK 54 AUDIO
    TITLE "0:"
    INDEX 01 01:52:49
  TRACK 55 AUDIO
    TITLE "3:cjc151_6646"
    INDEX 01 01:54:27
  TRACK 56 AUDIO
    TITLE "0:"
    INDEX 01 01:58:66
  TRACK 57 AUDIO
    TITLE "2:cjc151_6647"
    INDEX 01 02:00:41
  TRACK 58 AUDIO
    TITLE "0:"
    INDEX 01 02:01:52
  TRACK 59 AUDIO
    TITLE "3:cjc151_6648"
    INDEX 01 02:03:30
  TRACK 60 AUDIO
    TITLE "0:"
    INDEX 01 02:08:03
  TRACK 61 AUDIO
    TITLE "2:cjc151_6649"
    INDEX 01 02:09:56
  TRACK 62 AUDIO
    TITLE "0:"
    INDEX 01 02:11:00
  TRACK 63 AUDIO
    TITLE "3:cjc151_6650"
    INDEX 01 02:12:54
  TRACK 64 AUDIO
    TITLE "0:"
    INDEX 01 02:17:49
  TRACK 65 AUDIO
    TITLE "2:cjc151_6651"
    INDEX 01 02:19:29
  TRACK 66 AUDIO
    TITLE "0:"
    INDEX 01 02:20:34
  TRACK 67 AUDIO
    TITLE "3:cjc151_6652"
    INDEX 01 02:22:11
  TRACK 68 AUDIO
    TITLE "0:"
    INDEX 01 02:26:64
  TRACK 69 AUDIO
    TITLE "2:cjc151_6653"
    INDEX 01 02:28:41
  TRACK 70 AUDIO
    TITLE "0:"
    INDEX 01 02:29:49
  TRACK 71 AUDIO
    TITLE "3:cjc151_6654"
    INDEX 01 02:31:26
  TRACK 72 AUDIO
    TITLE "0:"
    INDEX 01 02:36:19
  TRACK 73 AUDIO
    TITLE "2:cjc151_6655"
    INDEX 01 02:37:74
  TRACK 74 AUDIO
    TITLE "0:"
    INDEX 01 02:39:18
  TRACK 75 AUDIO
    TITLE "3:cjc151_6656"
    INDEX 01 02:40:72
  TRACK 76 AUDIO
    TITLE "0:"
    INDEX 01 02:45:50
  TRACK 77 AUDIO
    TITLE "2:cjc151_6657"
    INDEX 01 02:47:29
  TRACK 78 AUDIO
    TITLE "0:"
    INDEX 01 02:48:64
  TRACK 79 AUDIO
    TITLE "3:cjc151_6658"
    INDEX 01 02:50:43
  TRACK 80 AUDIO
    TITLE "0:"
    INDEX 01 02:54:60
  TRACK 81 AUDIO
    TITLE "2:cjc151_6659"
    INDEX 01 02:56:40
  TRACK 82 AUDIO
    TITLE "0:"
    INDEX 01 02:57:51
  TRACK 83 AUDIO
    TITLE "3:cjc151_6660"
    INDEX 01 02:59:28
  TRACK 84 AUDIO
    TITLE "0:"
    INDEX 01 03:04:14
  TRACK 85 AUDIO
    TITLE "2:cjc151_6661"
    INDEX 01 03:05:66
  TRACK 86 AUDIO
    TITLE "0:"
    INDEX 01 03:07:14
  TRACK 87 AUDIO
    TITLE "3:cjc151_6662"
    INDEX 01 03:08:66
  TRACK 88 AUDIO
    TITLE "0:"
    INDEX 01 03:12:52
